<?xml version="1.0" encoding="utf-8" ?>
<svg baseProfile="full" height="200mm" version="1.1" viewBox="0,0,200,200" width="200mm" xmlns="http://www.w3.org/2000/svg" xmlns:ev="http://www.w3.org/2001/xml-events" xmlns:xlink="http://www.w3.org/1999/xlink"><defs /><rect fill="#1a1a1a" height="200" width="200" x="0" y="0" /><text alignment-baseline="middle" fill="#e1ed5e" style="dominant-baseline: central; font-size:9.0px; font-family:Arial;" text-anchor="middle" x="100.0" y="100.0">2023</text><line stroke="#e1ed5e" stroke-width="0.3" x1="100.0" x2="100.0" y1="15.0" y2="10.0" /><path d="M 100.0 14.0 a86.0,86.0 0 0,1 42.46469731375804,11.215312516191453" fill="none" id="id25" stroke="none" /><text fill="#e1ed5e" style="font-size:6.75px; font-family:Arial;" text-anchor="middle"><textPath startOffset="22.20632615414155" xlink:href="#id25">January</textPath></text><path d="M 101.80526077348638 79.07773832637324 l 0.7673664300975378 -8.893474829706463 a29.92651924238463,29.92651924238463 0 0,0 0.5128477289992633,0.048701071412596955 l -0.9203392861870453 8.878948213778688" fill="#ff4e07" stroke="none" /><path d="M 102.52436894288641 79.15227682838746 l 0.6574050503673814 -5.429237489353747 a26.468893957287225,26.468893957287225 0 0,0 0.45184326839881633,0.058662224226799856 l -0.7507630472740437 5.417116941962811" fill="#ff1b02" stroke="none" /><path d="M 102.88285421437855 79.19881850522331 l 1.5191724566741978 -10.961560884880784 a32.066331911978146,32.066331911978146 0 0,0 0.5460911893139941,0.08047964592792338 l -1.7076326264168475 10.93378675479189" fill="#ff6d0a" stroke="none" /><path d="M 103.59715602781102 79.31037775812273 l 1.537580147832899 -8.843639858633255 a29.976308743588127,29.976308743588127 0 0,0 0.5076057924069386,0.0927617140277963 l -1.6895810613427384 8.815862663254721" fill="#ff4f07" stroke="none" /><path d="M 105.01212808612495 79.60689891045804 l 4.5644899732287225 -18.571773076577646 a40.124469245539856,40.124469245539856 0 0,0 0.6692973772830328,0.17061880399719603 l -4.883496239196781 18.49045127641158" fill="#ffdb14" stroke="none" /><path d="M 105.71112130821622 79.79150937346287 l 2.707051008904057 -9.578752050021139 a30.953924653150267,30.953924653150267 0 0,0 0.5114911740235769,0.14931829970898397 l -2.871532400651061 9.530735421393452" fill="#ff5d08" stroke="none" /><path d="M 106.40334571778207 80.00007090966166 l 3.1627945574772567 -9.878533764183995 a31.372497227906642,31.372497227906642 0 0,0 0.5128912955948804,0.16909219628162803 l -3.3323686753145547 9.822627843643131" fill="#ff6309" stroke="none" /><path d="M 107.08798089147638 80.2323363322302 l 7.16031309526041 -19.969390887219653 a42.21430310023709,42.21430310023709 0 0,0 0.6818970341330448,0.25114843243699797 l -7.502992455166031 19.84317918697633" fill="#fff617" stroke="none" /><path d="M 107.4271985657038 80.35727306442388 l 3.6620098907753573 -9.684924899145061 a31.354133799706112,31.354133799706112 0 0,0 0.5031843303501866,0.19522770273826603 l -3.8281773861252106 9.620454492516249" fill="#ff6309" stroke="none" /><path d="M 107.76421540070413 80.48803036053334 l 3.5201341506775834 -8.84632214977469 a30.520964237741936,30.520964237741936 0 0,0 0.486469478385152,0.1984431147544739 l -3.671887498651123 8.784418148836636" fill="#ff5708" stroke="none" /><path d="M 108.09893153111575 80.62456947434976 l 4.351331248401529 -10.409881349605623 a32.28271746283592,32.28271746283592 0 0,0 0.5108605407412667,0.21872382282172143 l -4.529875546933111 10.333437998821111" fill="#ff700a" stroke="none" /><path d="M 109.41281617654863 81.2277094730956 l 7.097606384875247 -14.154991089111439 a36.834765205946255,36.834765205946255 0 0,0 0.5643428284354199,0.28907831591899874 l -7.340209700899423 14.03072024787994" fill="#ffaf10" stroke="none" /><path d="M 109.73455568895987 81.39251694778311 l 6.042380100495304 -11.549934984966168 a34.03500500329045,34.03500500329045 0 0,0 0.5167728541301368,0.27604216169902857 l -6.240298001153753 11.444214096765386" fill="#ff890c" stroke="none" /><path d="M 110.36928655335952 81.73862282372117 l 5.042228823354211 -8.87988212868355 a31.211580589036032,31.211580589036032 0 0,0 0.4649087806272478,0.2693051735247028 l -5.194334336446787 8.791772797768797" fill="#ff6108" stroke="none" /><line stroke="#e1ed5e" stroke-width="0.3" x1="143.23703022742887" x2="145.7803849466894" y1="26.81831364943548" y2="22.513508569990506" /><path d="M 143.74570117128098 25.957352633546492 a86.0,86.0 0 0,1 28.547481713284135,27.462654790039103" fill="none" id="id26" stroke="none" /><text fill="#e1ed5e" style="font-size:6.75px; font-family:Arial;" text-anchor="middle"><textPath startOffset="19.985693538727396" xlink:href="#id26">February</textPath></text><path d="M 111.60114157652 82.49532879139004 l 16.827182527584274 -25.390113168585813 a51.4600052286639,51.4600052286639 0 0,0 0.7341512377296436,0.49570219289556466 l -17.26173845972046 25.09669906339158" fill="#98ff23" stroke="none" /><path d="M 112.48926042617603 83.11751280151076 l 6.2923120379862425 -8.505698000143957 a31.580174348896122,31.580174348896122 0 0,0 0.434233181344029,0.3270554295903755 l -6.437791373088654 8.396125981047733" fill="#ff6609" stroke="none" /><path d="M 113.6212207817346 84.01681056812373 l 8.841692114345639 -10.374873311752943 a34.63134313557565,34.63134313557565 0 0,0 0.4503825986436916,0.390567351399981 l -9.018968511636094 10.221140966933289" fill="#ff910d" stroke="none" /><path d="M 113.89432698308785 84.25364557470405 l 9.167272199178138 -10.38921261440911 a34.85549054783777,34.85549054783777 0 0,0 0.4464639990152469,0.4008397865302517 l -9.344747185789373 10.229873819109564" fill="#ff940d" stroke="none" /><path d="M 114.42810811169701 84.74124197986012 l 20.84503738672087 -22.04512046502346 a51.33979103374291,51.33979103374291 0 0,0 0.6368988492250932,0.6126961883402428 l -21.22141947955838 21.683041189920914" fill="#99ff23" stroke="none" /><path d="M 115.19652480421416 85.50635884689758 l 8.458390062489658 -8.067164820781676 a32.68860602017543,32.68860602017543 0 0,0 0.38484245749621043,0.4105231012925902 l -8.595999841956331 7.920372302611031" fill="#ff760a" stroke="none" /><path d="M 115.68641384162765 86.03803664274999 l 19.85029148698656 -17.668094516068223 a47.574341684170676,47.574341684170676 0 0,0 0.5391943050362032,0.6163922998165949 l -20.15147765560061 17.32378666004868" fill="#c6ff1e" stroke="none" /><path d="M 116.82858285166822 87.43820079747576 l 11.740123798166328 -8.763487636793037 a35.65022943016579,35.65022943016579 0 0,0 0.3628469953187325,0.4949228938391015 l -11.88923340599869 8.560102299282443" fill="#ff9f0e" stroke="none" /><path d="M 117.04232023915458 87.72973835380427 l 6.467899066486687 -4.6568080363049065 a28.96991715272206,28.96991715272206 0 0,0 0.2878883864333392,0.407197706241285 l -6.54710007272391 4.544783829731829" fill="#ff4006" stroke="none" /><path d="M 117.2510076193507 88.02491185347247 l 10.359126890049941 -7.190968804063444 a33.61037439036484,33.61037439036484 0 0,0 0.32582142502821154,0.4781027369767377 l -10.481372780746886 7.0115880438163" fill="#ff830c" stroke="none" /><path d="M 117.65298651832404 88.62581576622439 l 8.02402691175653 -5.17004645623879 a30.545385704111716,30.545385704111716 0 0,0 0.2809774085741753,0.44443878349372345 l -8.111831916576662 5.03116002503086" fill="#ff5708" stroke="none" /><line stroke="#e1ed5e" stroke-width="0.3" x1="172.23445277983987" x2="176.4835382374775" y1="55.19839476539836" y2="52.563006222186495" /><path d="M 173.08426987136738 54.67131705675599 a86.0,86.0 0 0,1 12.851231095245387,41.99856678651699" fill="none" id="id27" stroke="none" /><text fill="#e1ed5e" style="font-size:6.75px; font-family:Arial;" text-anchor="middle"><textPath startOffset="22.20632615414155" xlink:href="#id27">March</textPath></text><path d="M 118.03404312379186 89.2402003453031 l 8.20080987760809 -4.892916728856596 a30.54955060535307,30.54955060535307 0 0,0 0.26554880534696945,0.45390898724793705 l -8.283818357425387 4.751028329254764" fill="#ff5708" stroke="none" /><path d="M 118.3937258080291 89.86733742301442 l 16.036784588710756 -8.834280164504648 a39.309095170697844,39.309095170697844 0 0,0 0.32138348894568464,0.5954747953234832 l -16.18647617687491 8.556924385848705" fill="#ffd013" stroke="none" /><path d="M 119.04729006885535 91.15688171328212 l 8.633242132951487 -4.008170249079139 a30.518313846042894,30.518313846042894 0 0,0 0.21711263708496265,0.4783789164460886 l -8.700957086999797 3.858969323790988" fill="#ff5708" stroke="none" /><path d="M 119.47837535516314 92.15188598940014 l 20.394812660585586 -8.217359613756168 a42.98802816266554,42.98802816266554 0 0,0 0.27063307623673805,0.6887316596617556 l -20.533239286704028 7.865078949198629" fill="#feff18" stroke="none" /><path d="M 120.08093135843002 93.85539295169968 l 9.116949571098582 -2.7897148590199 a30.534216196237164,30.534216196237164 0 0,0 0.14946368387092998,0.5039172396354263 l -9.163619152081214 2.632368232637944" fill="#ff5708" stroke="none" /><path d="M 120.37134235888165 94.90015583598534 l 40.557385517026674 -10.1532997773474 a62.80898248397595,62.80898248397595 0 0,0 0.2535305506492395,1.0510478109197536 l -40.72614886793673 9.45366673476824" fill="#31ff44" stroke="none" /><path d="M 120.78858239683441 97.02765380044208 l 15.304656048008892 -2.1882558113614983 a36.46030272160971,36.46030272160971 0 0,0 0.08348367763892661,0.6220503670439312 l -15.340055724705655 1.9244871022529026" fill="#ffaa0f" stroke="none" /><line stroke="#e1ed5e" stroke-width="0.3" x1="184.98032266829074" x2="189.97916517819016" y1="98.17113171792111" y2="98.06355123074" /><path d="M 185.9800911702706 98.14961562048488 a86.0,86.0 0 0,1 -9.607161424134198,41.387399972396054" fill="none" id="id28" stroke="none" /><text fill="#e1ed5e" style="font-size:6.75px; font-family:Arial;" text-anchor="middle"><textPath startOffset="21.466115282336823" xlink:href="#id28">April</textPath></text><path d="M 120.89721153311464 102.0752229133903 l 9.45910272782298 0.9393476584081456 a30.505629828626034,30.505629828626034 0 0,0 -0.05638849243848208,0.5220874077918675 l -9.441531933883446 -1.1020313880848045" fill="#ff5708" stroke="none" /><path d="M 120.49622156327973 104.57218783832717 l 9.316027612745328 2.078169774902571 a30.545007076726137,30.545007076726137 0 0,0 -0.11889198057613587,0.5121835406297696 l -9.27887506623864 -2.2382219728809054" fill="#ff5708" stroke="none" /><path d="M 120.41448212921028 104.9243191809786 l 39.7337702736294 9.584459005749936 a61.87339421421295,61.87339421421295 0 0,0 -0.2586563789604448,1.0332036587102247 l -39.562902580373894 -10.266990503857556" fill="#30ff38" stroke="none" /><path d="M 120.32669344350535 105.2749913415812 l 24.08245992793281 6.2496523577183805 a45.88017344740234,45.88017344740234 0 0,0 -0.2049574918511299,0.7627230732365058 l -23.971314359739903 -6.663266364130434" fill="#daff1c" stroke="none" /><path d="M 120.13307415673323 105.97154293290107 l 9.127736551211793 2.7073198196879753 a30.52077492404915,30.52077492404915 0 0,0 -0.1537276604443129,0.5023908889549203 l -9.079782118261347 -2.8640376811949526" fill="#ff5708" stroke="none" /><path d="M 119.41010516605496 108.01547362559984 l 8.794189561022925 3.6315926102337253 a30.514527572187113,30.514527572187113 0 0,0 -0.20466386990108526,0.48376493171634893 l -8.730374709929531 -3.782432067616238" fill="#ff5708" stroke="none" /><path d="M 118.64920377521936 109.65438752849418 l 8.713564618765892 4.510869772141364 a30.811939383558556,30.811939383558556 0 0,0 -0.24788570836089774,0.4689063420505478 l -8.634626402180102 -4.660191129278045" fill="#ff5b08" stroke="none" /><line stroke="#e1ed5e" stroke-width="0.3" x1="174.80103733775053" x2="179.2010983576182" y1="140.37084112569926" y2="142.7455964860345" /><path d="M 175.68104954172406 140.8457921977663 a86.0,86.0 0 0,1 -30.038265399797805,32.042727171017184" fill="none" id="id29" stroke="none" /><text fill="#e1ed5e" style="font-size:6.75px; font-family:Arial;" text-anchor="middle"><textPath startOffset="22.206326154141568" xlink:href="#id29">May</textPath></text><path d="M 117.75023020441432 111.22182372390056 l 8.430827289839064 5.330029898412005 a30.974370531971477,30.974370531971477 0 0,0 -0.28879195762463306,0.4482115314616912 l -8.337830468837383 -5.4743630297951515" fill="#ff5d08" stroke="none" /><path d="M 117.35343817320211 111.8261652097733 l 8.674294264044914 5.911430116666902 a31.49706563776177,31.49706563776177 0 0,0 -0.3091798351248983,0.4453966122191587 l -8.571253521757878 -6.05986799107308" fill="#ff6509" stroke="none" /><path d="M 116.498646956653 112.99209946851258 l 8.454204942557837 6.657386622641225 a31.76077961181678,31.76077961181678 0 0,0 -0.3419306366383411,0.4266110434451856 l -8.338356393864641 -6.8019254996646605" fill="#ff6909" stroke="none" /><path d="M 116.0416608686014 113.55231037782055 l 14.831092268251055 12.529598232240703 a40.41525507766369,40.41525507766369 0 0,0 -0.4535313136504317,0.5275593790483788 l -14.613218445029846 -12.78303471045061" fill="#ffdf14" stroke="none" /><path d="M 115.56566222782051 114.09645910891815 l 7.195507204902146 6.516341649797662 a30.707627538831844,30.707627538831844 0 0,0 -0.35818779369363557,0.38874210710602003 l -7.082273003212788 -6.639235011705017" fill="#ff5908" stroke="none" /><path d="M 114.0293411484842 115.62618273729858 l 27.087491237269596 30.17063192695126 a61.546260153073646,61.546260153073646 0 0,0 -0.7944087840233895,0.7009733875751203 l -26.564140100339618 -30.63242845629867" fill="#30ff34" stroke="none" /><path d="M 112.34349029814194 116.9893568818739 l 5.984523621159607 8.23699011479676 a31.18147971188259,31.18147971188259 0 0,0 -0.43694558840197534,0.31174907569989574 l -5.841850704908747 -8.338783452340873" fill="#ff6008" stroke="none" /><path d="M 112.04921762599082 117.19931262002967 l 22.86513031336887 32.63817922161644 a60.85053233207425,60.85053233207425 0 0,0 -0.8630434343876648,0.5936091438220193 l -22.29992999435832 -33.026929154803554" fill="#32ff2f" stroke="none" /><line stroke="#e1ed5e" stroke-width="0.3" x1="143.8653032363475" x2="146.44561519142675" y1="172.8068346515853" y2="177.08958963109032" /><path d="M 144.38136562736335 173.6633856474863 a86.0,86.0 0 0,1 -40.68145358897372,12.25698825130547" fill="none" id="id30" stroke="none" /><text fill="#e1ed5e" style="font-size:6.75px; font-family:Arial;" text-anchor="middle"><textPath startOffset="21.466115282336833" xlink:href="#id30">June</textPath></text><path d="M 110.21172684928248 118.3499491758327 l 4.239919077387864 7.618917028237727 a29.719220748780728,29.719220748780728 0 0,0 -0.44915251022394953,0.24491376061864278 l -4.1081437552952655 -7.690771440616141" fill="#ff4b07" stroke="none" /><path d="M 109.89434966115114 118.52300852407294 l 9.526679848542262 17.834701428990318 a41.219648958323944,41.219648958323944 0 0,0 -0.6287156455245437,0.3289143108019592 l -9.218273300491223 -17.996045158736994" fill="#ffe915" stroke="none" /><path d="M 108.2653958097858 119.30500536409082 l 4.993498116676781 11.663023785732152 a33.68704643594436,33.68704643594436 0 0,0 -0.5350281634105608,0.22364181569768327 l -4.791998493768759 -11.747250644449808" fill="#ff840c" stroke="none" /><path d="M 107.59598834532513 119.57807347666477 l 8.19194682765463 21.114110451138203 a43.64759706834224,43.64759706834224 0 0,0 -0.7027882076696685,0.26573436494420205 l -7.827288399224686 -21.251993066189033" fill="#f6ff19" stroke="none" /><path d="M 106.57524785965236 119.94407469862006 l 3.260801788629786 9.890680296463335 a31.414335554013,31.414335554013 0 0,0 -0.5150135804474973,0.16489108486645823 l -3.0900668630913484 -9.9453442279895" fill="#ff6409" stroke="none" /><path d="M 105.53697534728816 120.25689768951611 l 7.502747099223233 27.448628691062382 a49.455551849414476,49.455551849414476 0 0,0 -0.8231041917810421,0.2173892981269568 l -7.029152464630693 -27.57370933849292" fill="#afff20" stroke="none" /><path d="M 103.41894727170886 120.7198165907248 l 3.095073932205252 18.757049791520487 a40.010691716173696,40.010691716173696 0 0,0 -0.6804944834872874,0.10627924324482392 l -2.7717435851094474 -18.807547342112418" fill="#ffd914" stroke="none" /><path d="M 102.70371172650421 120.8252237178851 l 2.445471390586784 18.83613859621956 a39.99422142490106,39.99422142490106 0 0,0 -0.6834680621813305,0.08275846409811037 l -2.1208759053540733 -18.875442589043022" fill="#ffd914" stroke="none" /><path d="M 101.98527174616119 120.90594882070398 l 0.901888621384342 9.497358433219468 a30.540084920713625,30.540084920713625 0 0,0 -0.5237707200405176,0.04519314163734725 l -0.7382735836022827 -9.51147582713548" fill="#ff5708" stroke="none" /><line stroke="#e1ed5e" stroke-width="0.3" x1="102.19456741930631" x2="102.32365962044197" y1="184.97166512339345" y2="189.96999836594603" /><path d="M 102.22038585953345 185.97133177190398 a86.0,86.0 0 0,1 -42.740103519485714,-10.115201625700543" fill="none" id="id31" stroke="none" /><text fill="#e1ed5e" style="font-size:6.75px; font-family:Arial;" text-anchor="middle"><textPath startOffset="22.20632615414155" xlink:href="#id31">July</textPath></text><path d="M 100.54218724476979 120.99299961872073 l 0.506555297503829 19.613362855620018 a40.61990317956855,40.61990317956855 0 0,0 -0.699127161988241,0.012036108116819051 l -0.16886844562292003 -19.619176441016" fill="#ffe115" stroke="none" /><path d="M 100.18074693466247 120.99922214144158 l 0.1143284202276424 13.28270323324572 a34.283195254536764,34.283195254536764 0 0,0 -0.5901507097801866,0.0 l 0.11432842022763326 -13.28270323324572" fill="#ff8c0c" stroke="none" /><path d="M 98.73552117531835 120.96189622390904 l -0.5747361585693658 9.527687990419551 a30.545007076726137,30.545007076726137 0 0,0 -0.5245555725780265,-0.036176423464760195 l 0.7386544919263224 -9.516383222438506" fill="#ff5708" stroke="none" /><path d="M 98.01472825383883 120.90594882070398 l -0.900081014161907 9.47832338466599 a30.520964237741936,30.520964237741936 0 0,0 -0.5225878028599245,-0.05416836249903729 l 1.0631014136274248 -9.461425653711192" fill="#ff5708" stroke="none" /><path d="M 97.65516085044442 120.86867818915974 l -2.4857277783996694 22.122563538360115 a43.26177576243836,43.26177576243836 0 0,0 -0.7393078548209143,-0.0895198853409185 l 2.866163056271973 -22.076498124293845" fill="#fbff18" stroke="none" /><path d="M 96.58105272829116 120.7198165907248 l -1.5535934098799762 9.41522870962051 a30.54254599871988,30.54254599871988 0 0,0 -0.5179885319669671,-0.09005894589658524 l 1.7154309133189931 -9.38709118520292" fill="#ff5708" stroke="none" /><path d="M 95.51606077576429 120.51570834832081 l -4.052308484772923 18.540835380122182 a39.978508388399575,39.978508388399575 0 0,0 -0.67102946020187,-0.15272412045758402 l 4.370858094367655 -18.46833452608691" fill="#ffd914" stroke="none" /><path d="M 95.16358092515715 120.4354850818985 l -2.1864972475979165 9.23868076637904 a30.493892379673117,30.493892379673117 0 0,0 -0.5097514645370614,-0.12528450779169464 l 2.3452019968781888 -9.199675000273317" fill="#ff5608" stroke="none" /><path d="M 93.08242187328487 119.8279376855182 l -10.395481000919807 29.79669267502796 a52.55802464683982,52.55802464683982 0 0,0 -0.8516413199647767,-0.3053682773925443 l 10.90684188151431 -29.613336856595456" fill="#8bff24" stroke="none" /><path d="M 92.7421414339146 119.70592522655815 l -12.421657404534036 33.72623615834593 a56.94101526228962,56.94101526228962 0 0,0 -0.9168310914439689,-0.3466670686661254 l 13.000358716738289 -33.507420839573165" fill="#5bff2a" stroke="none" /><path d="M 91.7346041902142 119.30500536409082 l -3.755555271528335 8.771632518331023 a30.54178874394872,30.54178874394872 0 0,0 -0.4815121339091558,-0.21108076916854615 l 3.9059880800952342 -8.705687195868025" fill="#ff5708" stroke="none" /><path d="M 90.7491055286396 118.85261126421891 l -5.828729852897133 11.878503037842798 a34.23151261640538,34.23151261640538 0 0,0 -0.5267514064809372,-0.2641240903893633 l 6.032335167060832 -11.776411106544131" fill="#ff8b0c" stroke="none" /><path d="M 90.42595943632237 118.69057910512821 l -6.937979488413339 13.5444229210718 a36.21798119483985,36.21798119483985 0 0,0 -0.5524261366110241,-0.2890032454032683 l 7.170096527550858 -13.422990256723814" fill="#ffa70f" stroke="none" /><line stroke="#e1ed5e" stroke-width="0.3" x1="58.666819895761336" x2="56.23545636021788" y1="174.27360380694188" y2="178.64263932499728" /><path d="M 58.180547188652646 175.14741091055294 a86.0,86.0 0 0,1 -31.652253787137756,-30.449443065178592" fill="none" id="id32" stroke="none" /><text fill="#e1ed5e" style="font-size:6.75px; font-family:Arial;" text-anchor="middle"><textPath startOffset="22.20632615414155" xlink:href="#id32">August</textPath></text><path d="M 88.24862548938628 117.40417183066458 l -2.0622932883618694 3.054324132335205 a24.685369657522514,24.685369657522514 0 0,0 -0.35011273347771543,-0.2408107305843185 l 2.1145629064624774 -3.018372612385783" fill="#ff0000" stroke="none" /><path d="M 87.07902340077011 116.55440617244103 l -12.831635058832964 16.43994143856865 a41.85479639763088,41.85479639763088 0 0,0 -0.5641279292471396,-0.4481773450498768 l 13.11272048079746 -16.21663017951364" fill="#fff116" stroke="none" /><path d="M 86.24171649860922 115.8653595955263 l -6.349595369659319 7.322033581845474 a30.69172518863757,30.69172518863757 0 0,0 -0.3961536578509388,-0.34955954305745907 l 6.4746913804168456 -7.211650897015726" fill="#ff5908" stroke="none" /><path d="M 84.9287848128048 114.62390073753433 l -7.050361936173636 6.8411068276626175 a30.82386614620426,30.82386614620426 0 0,0 -0.36620726974523354,-0.3839668582505063 l 7.167075757297827 -6.718732852829611" fill="#ff5b08" stroke="none" /><path d="M 84.67929136418377 114.36230785411682 l -7.349249751822532 6.889510788405084 a31.07357090699289,31.07357090699289 0 0,0 -0.3624563242889201,-0.39337475402217104 l 7.4667524841071815 -6.761984779581571" fill="#ff5f08" stroke="none" /><path d="M 84.43433777217949 114.09645910891817 l -14.079917263400993 12.75094981861711 a39.99554662075059,39.99554662075059 0 0,0 -0.45774169922736724,-0.5142776515683838 l 14.297317812276699 -12.50669799730786" fill="#ffd914" stroke="none" /><path d="M 83.06392112726016 112.41649034213515 l -22.587901852817573 16.560058990752328 a49.008014279661396,49.008014279661396 0 0,0 -0.4929277595909178,-0.6846335453915849 l 22.8696094047841 -16.168791839909602" fill="#b4ff20" stroke="none" /><line stroke="#e1ed5e" stroke-width="0.3" x1="26.63291911575756" x2="22.317208475507996" y1="142.92168965132927" y2="145.44649492493687" /><path d="M 25.769776987707644 143.4266507060508 a86.0,86.0 0 0,1 -11.730757126820373,-40.83630448921669" fill="none" id="id33" stroke="none" /><text fill="#e1ed5e" style="font-size:6.75px; font-family:Arial;" text-anchor="middle"><textPath startOffset="21.46611528233685" xlink:href="#id33">September</textPath></text><path d="M 81.69416730710424 110.29060199501025 l -54.917498078687274 30.871805985030743 a84.0,84.0 0 0,0 -0.6976943621939244,-1.2665179264087099 l 55.44076885033272 -29.92191754022421" fill="#4dd2ff" stroke="none" /><path d="M 80.73074385275274 108.34839909993369 l -8.710919061724029 3.7740029142163305 a30.493324438594755,30.493324438594755 0 0,0 -0.20452165844574902,-0.4834287858445176 l 8.774591701362086 -3.623499602705654" fill="#ff5608" stroke="none" /><path d="M 80.58989483394504 108.01547362559985 l -8.971620183309472 3.7048632319611587 a30.706491656675112,30.706491656675112 0 0,0 -0.19754127372114957,-0.4902812411339423 l 9.03406407128801 -3.549882622984411" fill="#ff5908" stroke="none" /><path d="M 79.86692584326677 105.97154293290107 l -9.246618009942853 2.742580492211799 a30.644775392825913,30.644775392825913 0 0,0 -0.1456463916750266,-0.5070141964322892 l 9.292457038503985 -2.583008820274914" fill="#ff5908" stroke="none" /><path d="M 79.67330655649465 105.27499134158121 l -9.219365894053215 2.3925226894951983 a30.524750511597716,30.524750511597716 0 0,0 -0.12760608232782533,-0.5097228673217876 l 9.2591832906761 -2.233471982776019" fill="#ff5708" stroke="none" /><path d="M 79.58551787078972 104.9243191809786 l -9.388192025903562 2.2645910768276565 a30.657459410242772,30.657459410242772 0 0,0 -0.11932968486667715,-0.5140691592576369 l 9.425782276700794 -2.1026532602214454" fill="#ff5908" stroke="none" /><path d="M 79.23777060512086 103.15116336523772 l -41.04867212716233 6.230114759770079 a62.51876459293049,62.51876459293049 0 0,0 -0.15232532950795893,-1.065362999798647 l 41.14983150768688 -5.522606287991032" fill="#31ff41" stroke="none" /><path d="M 79.0095281055655 100.63252640178507 l -9.51021064727694 0.28658047094859074 a30.514527572187113,30.514527572187113 0 0,0 -0.011301908697765857,-0.5251552871876828 l 9.513734618659713 -0.12283536797077915" fill="#ff5708" stroke="none" /><line stroke="#e1ed5e" stroke-width="0.3" x1="15.007084014347285" x2="10.007500721073583" y1="101.09737516637583" y2="101.16192664675087" /><path d="M 14.007167355692545 101.11028546245083 a86.0,86.0 0 0,1 10.666146001902534,-42.60595125391555" fill="none" id="id34" stroke="none" /><text fill="#e1ed5e" style="font-size:6.75px; font-family:Arial;" text-anchor="middle"><textPath startOffset="22.20632615414155" xlink:href="#id34">October</textPath></text><path d="M 79.00175016825051 100.2711162175752 l -9.524146003991929 0.12296979324115194 a30.52493982529051,30.52493982529051 0 0,0 -0.0022613205535219933,-0.5254512583450321 l 9.524851621834955 0.040990943307555636" fill="#ff5708" stroke="none" /><path d="M 79.00486145842228 99.54816195383935 l -9.547150633427957 -0.20546498800504318 a30.549361291660283,30.549361291660283 0 0,0 0.01583956094897556,-0.5256379148464854 l 9.542199378023335 0.3697730502765229" fill="#ff5708" stroke="none" /><path d="M 79.05617556472873 98.46500227214037 l -18.934159815394885 -1.387707024826666 a39.984945053954405,39.984945053954405 0 0,0 0.05621791153176433,-0.6860009154357832 l 18.907467420043623 1.7134218574702278" fill="#ffd914" stroke="none" /><path d="M 79.12142395522702 97.74499172005258 l -18.877242743736534 -2.0388525825907755 a39.98702750457508,39.98702750457508 0 0,0 0.07980200986440583,-0.6836948862520791 l 18.839350380868538 2.3634912071677165" fill="#ffd914" stroke="none" /><path d="M 79.26566170972629 96.67025291283419 l -16.858390696026007 -2.707304980199335 a38.074391266328306,38.074391266328306 0 0,0 0.10948769582496404,-0.6462025785020536 l 16.80929113868082 2.9970933470172167" fill="#ffc011" stroke="none" /><path d="M 79.46518482838121 95.60439243477599 l -20.69827620271618 -4.430597436761982 a42.16716399073265,42.16716399073265 0 0,0 0.15803773763220097,-0.7084521897189209 l 20.61894407808194 4.786227796030862" fill="#fff517" stroke="none" /><path d="M 79.81627453868168 94.20196356495316 l -9.122679270638494 -2.620607721690334 a30.49162061535965,30.49162061535965 0 0,0 0.14925518032219415,-0.5032142693217648 l 9.076218193204594 2.777251377758638" fill="#ff5608" stroke="none" /><path d="M 80.02781315780177 93.51064311812611 l -9.186050039115399 -2.9847285882896504 a30.658784606092297,30.658784606092297 0 0,0 0.16740091488585085,-0.5005074283180713 l 9.133311830457775 3.142409119530044" fill="#ff5908" stroke="none" /><path d="M 80.14247586403 93.16781622104843 l -11.517782892427544 -3.9628107163967665 a33.18044299404113,33.18044299404113 0 0,0 0.190466675252257,-0.5384749394564639 l 11.447863136365477 4.160483282279841" fill="#ff7d0b" stroke="none" /><path d="M 80.2630227832202 92.82701384747504 l -15.176692290061641 -5.515647226120977 a37.14789005381918,37.14789005381918 0 0,0 0.2235868023642272,-0.5991014699717339 l 15.079500899195788 5.776071833122051" fill="#ffb310" stroke="none" /><path d="M 80.65960295795068 91.81776055985345 l -9.10747590657359 -3.8530516411288036 a30.88899005652366,30.88899005652366 0 0,0 0.21138261117616705,-0.48790021069547274 l 9.039802585554742 4.009250996410875" fill="#ff5c08" stroke="none" /><path d="M 80.803312248108 91.48605970444005 l -9.138618101221173 -4.053076754871527 a30.99708817510615,30.99708817510615 0 0,0 0.2205187216306452,-0.4858837722488876 l 9.067497062627178 4.209782535962486" fill="#ff5e08" stroke="none" /><line stroke="#e1ed5e" stroke-width="0.3" x1="26.266209847984257" x2="21.92892807433627" y1="57.711370442889674" y2="55.22380399835377" /><path d="M 25.39875349325466 57.213857153982495 a86.0,86.0 0 0,1 29.58750427330802,-30.492523968695096" fill="none" id="id35" stroke="none" /><text fill="#e1ed5e" style="font-size:6.75px; font-family:Arial;" text-anchor="middle"><textPath startOffset="21.46611528233685" xlink:href="#id35">November</textPath></text><path d="M 82.34701348167596 88.62581576622439 l -45.692282637722855 -29.44048250667032 a75.35555815987092,75.35555815987092 0 0,0 0.71194268016192,-1.084337545466348 l 45.17874332220301 30.222638116114336" fill="#42ffd5" stroke="none" /><path d="M 82.95767976084542 87.72973835380427 l -7.71157808364172 -5.5522416820895595 a30.50241149584862,30.50241149584862 0 0,0 0.31045265453127957,-0.4234570718869539 l 7.614862816596808 5.684161197648015" fill="#ff5608" stroke="none" /><path d="M 83.84228863543731 86.58626213691792 l -14.837733537832797 -12.3179244676486 a40.28443931594653,40.28443931594653 0 0,0 0.44752057781106375,-0.5297232088717911 l 14.62350234653461 12.571506626149507" fill="#ffdd14" stroke="none" /><path d="M 84.5562425177563 85.77008943001954 l -12.563063097061518 -11.575632715143808 a38.08291038250381,38.08291038250381 0 0,0 0.44834952004883555,-0.4782680077218423 l 12.361946255042225 11.7901701397437" fill="#ffc011" stroke="none" /><path d="M 85.83668400450813 84.49514656593479 l -20.48150298982977 -22.42149381315492 a51.367998773968466,51.367998773968466 0 0,0 0.6579727266371966,-0.5907344105453265 l 20.0925192755966 22.770727232469525" fill="#99ff23" stroke="none" /><path d="M 87.80319425747017 82.90503203632743 l -32.057146662634494 -44.93109972995451 a76.19478576000432,76.19478576000432 0 0,0 1.0742334947443717,-0.7525692128085241 l 31.278982028306462 45.47625378552698" fill="#43ffde" stroke="none" /><line stroke="#e1ed5e" stroke-width="0.3" x1="56.762969772571076" x2="54.21961505331055" y1="26.818313649435495" y2="22.513508569990535" /><path d="M 56.25429882871897 25.957352633546506 a86.0,86.0 0 0,1 42.265352541879196,-11.944610805530505" fill="none" id="id36" stroke="none" /><text fill="#e1ed5e" style="font-size:6.75px; font-family:Arial;" text-anchor="middle"><textPath startOffset="22.20632615414155" xlink:href="#id36">December</textPath></text><path d="M 89.63071344664047 81.73862282372117 l -4.70056500523483 -8.278177101239384 a30.519639041892418,30.519639041892418 0 0,0 0.45906756112143643,-0.25547060074217753 l 4.557373355041348 8.357863099541746" fill="#ff5708" stroke="none" /><path d="M 92.91201910852362 80.23233633223022 l -3.2141185358132245 -8.963852354724171 a30.52266806097704,30.52266806097704 0 0,0 0.4960921853911549,-0.17307682245756742 l 3.0593443463587846 9.01785003035395" fill="#ff5708" stroke="none" /><path d="M 94.63758080256005 79.69619591428918 l -10.244223471002504 -38.787849048573854 a61.11784326629225,61.11784326629225 0 0,0 1.0194779637583589,-0.259887632585758 l 9.575036618559146 38.95843967732848" fill="#30ff2f" stroke="none" /><path d="M 99.63851952072746 79.00311137660856 l -0.5213111162399187 -30.280781600858425 a51.285268690219695,51.285268690219695 0 0,0 0.882791595512447,-0.007598465969828862 l 7.417751472559021e-15 30.285268690219695" fill="#9aff23" stroke="none" /></svg>