<?xml version="1.0" encoding="utf-8" ?>
<svg baseProfile="full" height="200mm" version="1.1" viewBox="0,0,200,200" width="200mm" xmlns="http://www.w3.org/2000/svg" xmlns:ev="http://www.w3.org/2001/xml-events" xmlns:xlink="http://www.w3.org/1999/xlink"><defs /><rect fill="#1a1a1a" height="200" width="200" x="0" y="0" /><text alignment-baseline="middle" fill="#e1ed5e" style="dominant-baseline: central; font-size:9.0px; font-family:Arial;" text-anchor="middle" x="100.0" y="100.0">2024</text><line stroke="#e1ed5e" stroke-width="0.3" x1="100.0" x2="100.0" y1="15.0" y2="10.0" /><path d="M 100.0 14.0 a86.0,86.0 0 0,1 42.35913384403234,11.155469271406648" fill="none" id="id37" stroke="none" /><text fill="#e1ed5e" style="font-size:6.75px; font-family:Arial;" text-anchor="middle"><textPath startOffset="22.145653131862478" xlink:href="#id37">January</textPath></text><path d="M 100.72087961077811 79.0123766808444 l 0.22374620497950024 -6.5141266294542595 a27.517968096639308,27.517968096639308 0 0,0 0.47196491566750076,0.020268204218806485 l -0.33553688124783726 6.509325856809622" fill="#ff0b01" stroke="none" /><path d="M 101.44090949804482 79.04949213459386 l 0.81703161328814 -11.879460343418643 a32.907523617779155,32.907523617779155 0 0,0 0.5632373473045765,0.04359813284331556 l -1.02083795536795 11.863684443580272" fill="#ff5e08" stroke="none" /><path d="M 102.15924093988457 79.11130261209362 l 1.474450232637299 -14.263968487340371 a35.339972123277064,35.339972123277064 0 0,0 0.6029068214380399,0.06755696688541943 l -1.7190929556761354 14.236555759947981" fill="#ff810b" stroke="none" /><path d="M 103.23170211078529 79.25015418208739 l 1.002933750311359 -6.439554133126645 a27.51718754839709,27.51718754839709 0 0,0 0.4661182220796565,0.07669957606442147 l -1.1133294754440852 6.421388558566555" fill="#ff0b01" stroke="none" /><path d="M 103.94208987418118 79.37332000966035 l 2.442129866425521 -12.77825540699356 a34.009527644416906,34.009527644416906 0 0,0 0.5724994070349263,0.11451591518799477 l -2.661125758991404 12.734450095142707" fill="#ff6e0a" stroke="none" /><path d="M 104.64783097203109 79.52079915486377 l 4.494856364910742 -19.80516650045475 a41.30882453151619,41.30882453151619 0 0,0 0.6901875378528614,0.162882379650041 l -4.834176056503488 19.72508797715848" fill="#ffd614" stroke="none" /><path d="M 105.69591212413111 79.78721728523813 l 1.7727633329934718 -6.290911670263908 a27.535920706210316,27.535920706210316 0 0,0 0.4538706310623219,0.13211512592079086 l -1.8804939764373982 6.259552850040601" fill="#ff0b01" stroke="none" /><path d="M 107.06938296918511 80.22567764915836 l 8.771728050666695 -24.53608452164491 a47.05691187858139,47.05691187858139 0 0,0 0.7583128318746584,0.2784629755915571 l -9.191630034195478 24.38189069704463" fill="#ddff1b" stroke="none" /><path d="M 109.3889696526874 81.21577127319529 l 14.70815467140952 -29.426161945032803 a53.897246399256616,53.897246399256616 0 0,0 0.8240446973046253,0.4207630939946717 l -15.211126590427725 29.169340899365295" fill="#89ff24" stroke="none" /><path d="M 110.34350942703115 81.72400993836675 l 3.3319652482925184 -5.887263330989185 a27.764751432553815,27.764751432553815 0 0,0 0.4127792631060535,0.23831821867017536 l -3.4325369792589693 5.8291982150428385" fill="#ff0f01" stroke="none" /><line stroke="#e1ed5e" stroke-width="0.3" x1="143.13028292997686" x2="145.6673583964461" y1="26.7553504044142" y2="22.446841604673864" /><path d="M 143.63769802327073 25.89364864446614 a86.0,86.0 0 0,1 29.32050498858742,28.57503671076993" fill="none" id="id38" stroke="none" /><text fill="#e1ed5e" style="font-size:6.75px; font-family:Arial;" text-anchor="middle"><textPath startOffset="20.669276256404974" xlink:href="#id38">February</textPath></text><path d="M 112.7482090630111 83.31218511350987 l 3.537593464318305 -4.6308234030684545 a26.827443085024004,26.827443085024004 0 0,0 0.3635630244220145,0.28270880678185234 l -3.616566433375546 4.569413544665811" fill="#ff0000" stroke="none" /><path d="M 113.31354834802062 83.75963576809568 l 6.084108087874448 -7.421622605069537 a30.596710546693508,30.596710546693508 0 0,0 0.4033311795021081,0.33647321491114507 l -6.210613601538449 7.316087206246522" fill="#ff3b05" stroke="none" /><path d="M 113.59037401385872 83.9905735841838 l 10.600281255759262 -12.487104665256323 a37.379674771565746,37.379674771565746 0 0,0 0.4856163008320788,0.4194637945942831 l -10.813077036354201 12.30329673819732" fill="#ff9f0e" stroke="none" /><path d="M 114.39649973595853 84.71141617570332 l 4.7189839896470405 -5.011397465665232 a27.883524856744618,27.883524856744618 0 0,0 0.345659462441386,0.3311339458854735 l -4.804315937953739 4.929651389474179" fill="#ff1101" stroke="none" /><path d="M 115.16444852881244 85.47280134310134 l 9.419853875038804 -9.024006926571824 a34.044782406690416,34.044782406690416 0 0,0 0.4006652077872356,0.4254925660460626 l -9.5733749165623 8.860972900581267" fill="#ff6e0a" stroke="none" /><path d="M 115.41159269507618 85.73525988315684 l 5.9187008055663775 -5.478261104559854 a29.06488462134118,29.06488462134118 0 0,0 0.33577180161442505,0.3690720285363514 l -6.01187030802268 5.3758515004658305" fill="#ff2303" stroke="none" /><path d="M 115.8921839302757 86.27271002978787 l 5.01835641110035 -4.33473674425642 a27.63127768313458,27.63127768313458 0 0,0 0.3069774905104685,0.36161871193741735 l -5.0920284651179335 4.247951249869451" fill="#ff0d01" stroke="none" /><path d="M 117.01052211995028 87.68569379921539 l 7.256698747209268 -5.253290272329758 a29.9586123586805,29.9586123586805 0 0,0 0.29799532336771806,0.41916774129344914 l -7.345809169106946 5.127945304326804" fill="#ff3104" stroke="none" /><line stroke="#e1ed5e" stroke-width="0.3" x1="172.87174338648825" x2="177.1583165268699" y1="56.24261187166439" y2="53.66864786411523" /><path d="M 173.72905801456457 55.72781907015455 a86.0,86.0 0 0,1 12.242430191666344,42.057860355516425" fill="none" id="id39" stroke="none" /><text fill="#e1ed5e" style="font-size:6.75px; font-family:Arial;" text-anchor="middle"><textPath startOffset="22.145653131862474" xlink:href="#id39">March</textPath></text><path d="M 118.18653347947321 89.5 l 10.20361136235979 -5.89105776676475 a32.7821155335295,32.7821155335295 0 0,0 0.2771909496556816,0.48976984811778185 l -10.303235677036849 5.715031148547851" fill="#ff5c08" stroke="none" /><path d="M 118.36410011445183 89.81374322990088 l 5.222719356694249 -2.8969543878487247 a26.9723648753291,26.9723648753291 0 0,0 0.22111514500760618,0.4068269620961846 l -5.271679851317196 2.806872592277937" fill="#ff0200" stroke="none" /><path d="M 119.31412917781788 91.75594674310238 l 6.1624545349450806 -2.6303853987703967 a27.700356202570852,27.700356202570852 0 0,0 0.18292016678238582,0.43894181052915415 l -6.206700546263949 2.5242110787999645" fill="#ff0e01" stroke="none" /><path d="M 119.4528033332814 92.08871423366111 l 26.93579094848004 -10.954551685165459 a50.07815394145888,50.07815394145888 0 0,0 0.31702172096323533,0.7991018307431121 l -27.119871344409397 10.490548837208781" fill="#b7ff1f" stroke="none" /><path d="M 120.05942366710727 93.78553927170692 l 12.470829059686444 -3.8634947208258223 a34.05557999070776,34.05557999070776 0 0,0 0.16820809909747828,0.55991005517617 l -12.53531347878755 3.648847062058929" fill="#ff6f0a" stroke="none" /><path d="M 120.16314734710363 94.1308016681162 l 19.08519807279356 -5.5554230083331895 a40.87731144494347,40.87731144494347 0 0,0 0.19033548347731039,0.6754334839782884 l -19.17775204834545 5.226981600451888" fill="#ffd013" stroke="none" /><path d="M 120.26092885502905 94.47779374421319 l 20.490994102613186 -5.58491156207058 a42.23845748799752,42.23845748799752 0 0,0 0.18466355771335147,0.7011976069303184 l -20.583847141131265 5.232333450767463" fill="#ffe215" stroke="none" /><path d="M 120.43855184770803 95.1765574152323 l 6.363457812073459 -1.5017587168520374 a27.538262350936968,27.538262350936968 0 0,0 0.10463115367524822,0.4610241688366186 l -6.388299827306374 1.3923002140763925" fill="#ff0b01" stroke="none" /><path d="M 120.65975698304385 96.23510406497455 l 12.827926914464722 -2.337675604544129 a34.03918847762119,34.03918847762119 0 0,0 0.09982426832431121,0.5757598524276253 l -12.866166000281268 2.117122719195911" fill="#ff6e0a" stroke="none" /><path d="M 120.77682067341334 96.94652285012252 l 12.908078479268703 -1.8970430223575223 a34.046733777295955,34.046733777295955 0 0,0 0.08001871453782937,0.578975557117688 l -12.938741710361745 1.6751791570397487" fill="#ff6e0a" stroke="none" /><path d="M 120.86939407059847 97.66154086499901 l 6.800507151318698 -0.7620110108057722 a27.843066439523,27.843066439523 0 0,0 0.049146469470815905,0.47544751004708713 l -6.81258601327118 0.6451589784757535" fill="#ff1001" stroke="none" /><path d="M 120.99303781780057 99.45929381324524 l 48.750144912227704 -1.2556308042698683 a69.76631252903825,69.76631252903825 0 0,0 0.020559695104514115,1.197499167264657 l -48.764516038930886 0.4185847210361447" fill="#3aff91" stroke="none" /><line stroke="#e1ed5e" stroke-width="0.3" x1="184.99686870605535" x2="189.99668451229388" y1="99.2704041080226" y2="99.22748670261217" /><path d="M 185.99683186730306 99.26182062694052 a86.0,86.0 0 0,1 -10.086455211305974,41.156179273409016" fill="none" id="id40" stroke="none" /><text fill="#e1ed5e" style="font-size:6.75px; font-family:Arial;" text-anchor="middle"><textPath startOffset="21.40746469413373" xlink:href="#id40">April</textPath></text><path d="M 120.96210409425399 101.26102812881392 l 13.894657816851032 0.8358681107826467 a34.91977698621651,34.91977698621651 0 0,0 -0.04113223617325158,0.5980536866741233 l -13.878261619512715 -1.0742652216111135" fill="#ff7b0b" stroke="none" /><path d="M 120.93736805541906 101.62068470465957 l 13.463729618242029 1.0421778230291587 a34.50400495586185,34.50400495586185 0 0,0 -0.050780656933566086,0.5901482076853137 l -13.443855338610723 -1.2731470780901297" fill="#ff750a" stroke="none" /><path d="M 120.26092885502905 105.52220625578681 l 6.329367324153044 1.7250972096442125 a27.560247793092767,27.560247793092767 0 0,0 -0.12832774228604035,0.4553898856891804 l -6.298821089792424 -1.8334950192364012" fill="#ff0c01" stroke="none" /><path d="M 119.94978838288452 106.5578916946017 l 59.84936514865356 19.67367508380507 a84.0,84.0 0 0,0 -0.46205831371054007,1.3659933021033581 l -59.50282141337066 -20.698170060382587" fill="#4dd2ff" stroke="none" /><path d="M 119.16976305983485 108.57439118712176 l 6.241558473977759 2.79176971599153 a27.83747251045377,27.83747251045377 0 0,0 -0.19885968265420895,0.4345442950582129 l -6.192714326468494 -2.8985029932644317" fill="#ff1001" stroke="none" /><line stroke="#e1ed5e" stroke-width="0.3" x1="174.33088141563837" x2="178.70328620479359" y1="141.23008692659167" y2="143.65538615756765" /><path d="M 175.20536237346943 141.71514677278685 a86.0,86.0 0 0,1 -30.301960400862466,31.631185727798858" fill="none" id="id41" stroke="none" /><text fill="#e1ed5e" style="font-size:6.75px; font-family:Arial;" text-anchor="middle"><textPath startOffset="22.145653131862474" xlink:href="#id41">May</textPath></text><line stroke="#e1ed5e" stroke-width="0.3" x1="143.1302829299769" x2="145.66735839644613" y1="173.24464959558577" y2="177.55315839532614" /><path d="M 143.63769802327073 174.10635135553383 a86.0,86.0 0 0,1 -40.68552437913181,11.842963189579606" fill="none" id="id42" stroke="none" /><text fill="#e1ed5e" style="font-size:6.75px; font-family:Arial;" text-anchor="middle"><textPath startOffset="21.407464694133747" xlink:href="#id42">June</textPath></text><line stroke="#e1ed5e" stroke-width="0.3" x1="101.45913802915013" x2="101.54496967792366" y1="184.9874750549273" y2="189.98673829345242" /><path d="M 101.47630435890484 185.9873277026323 a86.0,86.0 0 0,1 -42.54439059252881,-10.42667462771756" fill="none" id="id43" stroke="none" /><text fill="#e1ed5e" style="font-size:6.75px; font-family:Arial;" text-anchor="middle"><textPath startOffset="22.145653131862474" xlink:href="#id43">July</textPath></text><line stroke="#e1ed5e" stroke-width="0.3" x1="58.13341422392154" x2="55.670673884152215" y1="173.97424548756322" y2="178.32567169271397" /><path d="M 57.64086615596767 174.84453072859336 a86.0,86.0 0 0,1 -31.369924170532244,-30.572349798747897" fill="none" id="id44" stroke="none" /><text fill="#e1ed5e" style="font-size:6.75px; font-family:Arial;" text-anchor="middle"><textPath startOffset="22.145653131862474" xlink:href="#id44">August</textPath></text><line stroke="#e1ed5e" stroke-width="0.3" x1="26.387840678322732" x2="22.057713659400548" y1="142.50000000000003" y2="145.00000000000006" /><path d="M 25.521815274538298 143.00000000000003 a86.0,86.0 0 0,1 -11.493303480769221,-40.785679425670985" fill="none" id="id45" stroke="none" /><text fill="#e1ed5e" style="font-size:6.75px; font-family:Arial;" text-anchor="middle"><textPath startOffset="21.40746469413373" xlink:href="#id45">September</textPath></text><line stroke="#e1ed5e" stroke-width="0.3" x1="15.003131293944662" x2="10.003315487706104" y1="100.72959589197737" y2="100.7725132973878" /><path d="M 14.003168132696942 100.73817937305945 a86.0,86.0 0 0,1 10.791469493833615,-42.45332614584628" fill="none" id="id46" stroke="none" /><text fill="#e1ed5e" style="font-size:6.75px; font-family:Arial;" text-anchor="middle"><textPath startOffset="22.145653131862435" xlink:href="#id46">October</textPath></text><line stroke="#e1ed5e" stroke-width="0.3" x1="26.387840678322718" x2="22.05771365940052" y1="57.49999999999999" y2="54.99999999999999" /><path d="M 25.521815274538284 56.99999999999999 a86.0,86.0 0 0,1 29.574782752854787,-30.34633250058573" fill="none" id="id47" stroke="none" /><text fill="#e1ed5e" style="font-size:6.75px; font-family:Arial;" text-anchor="middle"><textPath startOffset="21.40746469413373" xlink:href="#id47">November</textPath></text><line stroke="#e1ed5e" stroke-width="0.3" x1="56.869717070023135" x2="54.33264160355391" y1="26.7553504044142" y2="22.446841604673864" /><path d="M 56.362301976729285 25.89364864446614 a86.0,86.0 0 0,1 42.16139366436587,-11.88097634709845" fill="none" id="id48" stroke="none" /><text fill="#e1ed5e" style="font-size:6.75px; font-family:Arial;" text-anchor="middle"><textPath startOffset="22.145653131862474" xlink:href="#id48">December</textPath></text></svg>