<?xml version="1.0" encoding="utf-8" ?>
<svg baseProfile="full" height="200mm" version="1.1" viewBox="0,0,200,200" width="200mm" xmlns="http://www.w3.org/2000/svg" xmlns:ev="http://www.w3.org/2001/xml-events" xmlns:xlink="http://www.w3.org/1999/xlink"><defs /><rect fill="#1a1a1a" height="200" width="200" x="0" y="0" /><text alignment-baseline="middle" fill="#e1ed5e" style="dominant-baseline: central; font-size:9.0px; font-family:Arial;" text-anchor="middle" x="100.0" y="100.0">2022</text><line stroke="#e1ed5e" stroke-width="0.3" x1="100.0" x2="100.0" y1="15.0" y2="10.0" /><path d="M 100.0 14.0 a86.0,86.0 0 0,1 42.46469731375804,11.215312516191453" fill="none" id="id13" stroke="none" /><text fill="#e1ed5e" style="font-size:6.75px; font-family:Arial;" text-anchor="middle"><textPath startOffset="22.20632615414155" xlink:href="#id13">January</textPath></text><path d="M 102.88285421437855 79.19881850522331 l 1.663062152506284 -11.999794335362996 a33.11448883833357,33.11448883833357 0 0,0 0.5639413526589111,0.08311029599858127 l -1.869372485593851 11.969389555203445" fill="#ff4f07" stroke="none" /><path d="M 103.95276090670814 79.375362276772 l 2.3561445006543167 -12.293844200670616 a33.51758851130385,33.51758851130385 0 0,0 0.5657028210507072,0.11347466404693886 l -2.5674137311721497 12.25146558054647" fill="#ff5507" stroke="none" /><path d="M 105.36241919743992 79.69619591428918 l 3.5813435794581934 -13.560092138199925 a35.02505332006256,35.02505332006256 0 0,0 0.5815861915598995,0.15896947569898437 l -3.8142276602418037 13.496436121674648" fill="#ff6c0a" stroke="none" /><path d="M 106.74666289553966 80.11325718540242 l 3.6762604626301862 -10.836297510600934 a32.44291198635006,32.44291198635006 0 0,0 0.5273023667396477,0.18396544190208233 l -3.8622448334331074 10.771411215526644" fill="#ff4506" stroke="none" /><path d="M 107.76421540070413 80.48803036053334 l 4.161553847464816 -10.45825085138353 a32.255822550831795,32.255822550831795 0 0,0 0.5141211479741927,0.20972292507191867 l -4.340958865027396 10.385067040128034" fill="#ff4206" stroke="none" /><path d="M 108.43124777332544 80.76684994638697 l 4.516919700430696 -10.30388344811263 a32.25044788852552,32.25044788852552 0 0,0 0.5065130667186185,0.2272576485351352 l -4.693614885616095 10.224605469060963" fill="#ff4206" stroke="none" /><line stroke="#e1ed5e" stroke-width="0.3" x1="143.23703022742887" x2="145.7803849466894" y1="26.81831364943548" y2="22.513508569990506" /><path d="M 143.74570117128098 25.957352633546492 a86.0,86.0 0 0,1 28.547481713284135,27.462654790039103" fill="none" id="id14" stroke="none" /><text fill="#e1ed5e" style="font-size:6.75px; font-family:Arial;" text-anchor="middle"><textPath startOffset="19.985693538727396" xlink:href="#id14">February</textPath></text><path d="M 111.60114157652 82.49532879139004 l 6.348756599018643 -9.57947940866787 a32.49230769230769,32.49230769230769 0 0,0 0.4635496596435045,0.31299079943238733 l -6.512710953068689 9.468776696936814" fill="#ff4506" stroke="none" /><path d="M 111.90073688211348 82.69761687909136 l 8.44376753345656 -12.276323919683998 a35.89984359448315,35.89984359448315 0 0,0 0.5061345610544664,0.35457960494761154 l -8.653833234094678 12.129159471972452" fill="#ff790b" stroke="none" /><path d="M 113.06298171725822 83.55741782278167 l 7.210842326011372 -9.076401550479366 a32.59212284942414,32.59212284942414 0 0,0 0.43626356983532,0.35276146670917263 l -7.3660092944111835 8.950933986506065" fill="#ff4706" stroke="none" /><path d="M 114.16331599549186 84.49514656593476 l 8.211449353718711 -8.989230964781347 a33.17514574150434,33.17514574150434 0 0,0 0.4183103355384433,0.388773867775697 l -8.364967573052 8.846552510931009" fill="#ff5007" stroke="none" /><path d="M 114.94478906791727 85.2469230424477 l 8.791655950754182 -8.678876378673094 a33.35378927911275,33.35378927911275 0 0,0 0.39982574773660934,0.4120555787180244 l -8.9397459621939 8.526256604404951" fill="#ff5307" stroke="none" /><path d="M 116.60985879189232 87.15038557335679 l 8.669542635498434 -6.7068770130590325 a31.960983932887814,31.960983932887814 0 0,0 0.33288743620157984,0.4380408454146091 l -8.783706011924126 6.55665139176339" fill="#ff3d05" stroke="none" /><path d="M 117.04232023915458 87.72973835380427 l 8.898589823559544 -6.406875582961517 a31.965078913692594,31.965078913692594 0 0,0 0.3176527893457453,0.4492973433392879 l -9.007555232709173 6.252751739290436" fill="#ff3d05" stroke="none" /><path d="M 117.45458315368197 88.32363383020206 l 10.835448975433504 -7.248449804694129 a34.0363713920091,34.0363713920091 0 0,0 0.3215681240181845,0.489770314400582 l -10.958613734809612 7.060861426315873" fill="#ff5d08" stroke="none" /><line stroke="#e1ed5e" stroke-width="0.3" x1="172.23445277983987" x2="176.4835382374775" y1="55.19839476539836" y2="52.563006222186495" /><path d="M 173.08426987136738 54.67131705675599 a86.0,86.0 0 0,1 12.851231095245387,41.99856678651699" fill="none" id="id15" stroke="none" /><text fill="#e1ed5e" style="font-size:6.75px; font-family:Arial;" text-anchor="middle"><textPath startOffset="22.20632615414155" xlink:href="#id15">March</textPath></text><path d="M 117.84615892207809 88.93136811851018 l 45.31244548604191 -28.103906332168343 a74.32023318640694,74.32023318640694 0 0,0 0.6649332230195122,1.0929753862250962 l -45.78949450734765 27.319763172736167" fill="#40ffc4" stroke="none" /><path d="M 118.21658344932153 89.55222093294921 l 23.13581212655052 -13.269110220775074 a47.67086591781601,47.67086591781601 0 0,0 0.4021204585863854,0.7153274260186305 l -23.360790226429337 12.86889928482165" fill="#e0ff1b" stroke="none" /><path d="M 118.89224826269711 90.83032412892265 l 11.185227133556856 -5.42894132730677 a33.433129532205314,33.433129532205314 0 0,0 0.24683489467598252,0.5198972389339942 l -11.277020222074595 5.235601672732236" fill="#ff5407" stroke="none" /><path d="M 119.34039704204932 91.81776055985345 l 58.02119112614798 -24.54671832043964 a84.0,84.0 0 0,0 0.5519132524552104,1.3365017181867875 l -58.435126065489385 23.54434203179955" fill="#4dd2ff" stroke="none" /><path d="M 119.47837535516314 92.15188598940014 l 50.63799939481036 -20.402768982158246 a75.59377221669274,75.59377221669274 0 0,0 0.4759040131342995,1.2111238040946515 l -50.98169695782636 19.52809617316781" fill="#41ffd2" stroke="none" /><path d="M 119.85752413597 93.16781622104841 l 51.610605112312356 -17.757155255397187 a75.5799516564766,75.5799516564766 0 0,0 0.41267627588239986,1.2338495384605421 l -51.90861868196652 16.866132614014333" fill="#41ffd2" stroke="none" /><path d="M 119.97218684219823 93.5106431181261 l 51.91275665003118 -16.86747712134092 a75.58430257358168,75.58430257358168 0 0,0 0.39139897228960324,1.2408417015722601 l -52.19541110608898 15.971385253342241" fill="#41ffd2" stroke="none" /><path d="M 120.08093135843002 93.85539295169968 l 52.183174345902266 -15.967640900973837 a75.57150575856676,75.57150575856676 0 0,0 0.36991929230331877,1.2471839569159346 l -52.450299535317285 15.067027557311372" fill="#41ffd2" stroke="none" /><path d="M 120.28053869075195 94.5502522615342 l 25.59225939490775 -6.877103211426447 a47.500156405516854,47.500156405516854 0 0,0 0.2053899256359599,0.7914511672990008 l -25.706845652414014 6.435555618578596" fill="#e2ff1b" stroke="none" /><path d="M 120.73433829027371 96.67025291283417 l 26.168705128791316 -4.202457221331665 a47.503995450021336,47.503995450021336 0 0,0 0.12270532339285574,0.8084747685123865 l -26.23716634562347 3.7513833404271963" fill="#e2ff1b" stroke="none" /><line stroke="#e1ed5e" stroke-width="0.3" x1="184.98032266829074" x2="189.97916517819016" y1="98.17113171792111" y2="98.06355123074" /><path d="M 185.9800911702706 98.14961562048488 a86.0,86.0 0 0,1 -9.607161424134198,41.387399972396054" fill="none" id="id16" stroke="none" /><text fill="#e1ed5e" style="font-size:6.75px; font-family:Arial;" text-anchor="middle"><textPath startOffset="21.466115282336823" xlink:href="#id16">April</textPath></text><path d="M 120.41448212921028 104.9243191809786 l 9.009308919755851 2.1731980483323454 a30.26770937011233,30.26770937011233 0 0,0 -0.12653154404291583,0.505430621014713 l -8.970566061417873 -2.3279565087444545" fill="#ff2203" stroke="none" /><path d="M 119.67450827220406 107.3425965602758 l 12.115462364806579 4.521533705198613 a33.93169344518697,33.93169344518697 0 0,0 -0.20893152693058029,0.5454542878351148 l -12.03583655828249 -4.729411559866872" fill="#ff5b08" stroke="none" /><path d="M 119.12269723197855 108.67885076344098 l 9.524331430756236 4.322625103892377 a31.459348784302573,31.459348784302573 0 0,0 -0.22804340107904023,0.4911851982309014 l -9.448513412837364 -4.485930369402109" fill="#ff3505" stroke="none" /><line stroke="#e1ed5e" stroke-width="0.3" x1="174.80103733775053" x2="179.2010983576182" y1="140.37084112569926" y2="142.7455964860345" /><path d="M 175.68104954172406 140.8457921977663 a86.0,86.0 0 0,1 -30.038265399797805,32.042727171017184" fill="none" id="id17" stroke="none" /><text fill="#e1ed5e" style="font-size:6.75px; font-family:Arial;" text-anchor="middle"><textPath startOffset="22.206326154141568" xlink:href="#id17">May</textPath></text><path d="M 117.94076556474637 110.91462005526583 l 20.970699980287936 12.757940666009098 a45.54659462533769,45.54659462533769 0 0,0 -0.413249372325521,0.6662895696534552 l -20.747985968294454 -13.117026567027825" fill="#fcff18" stroke="none" /><path d="M 112.92097659922987 116.55440617244103 l 4.384066809805528 5.61688368516697 a28.125266600312813,28.125266600312813 0 0,0 -0.38420623767101,0.29459295965168825 l -4.286731843641025 -5.69151598664603" fill="#ff0000" stroke="none" /><line stroke="#e1ed5e" stroke-width="0.3" x1="143.8653032363475" x2="146.44561519142675" y1="172.8068346515853" y2="177.08958963109032" /><path d="M 144.38136562736335 173.6633856474863 a86.0,86.0 0 0,1 -40.68145358897372,12.25698825130547" fill="none" id="id18" stroke="none" /><text fill="#e1ed5e" style="font-size:6.75px; font-family:Arial;" text-anchor="middle"><textPath startOffset="21.466115282336833" xlink:href="#id18">June</textPath></text><path d="M 108.59647513512805 119.15986991738527 l 3.9293632054150116 8.757785800632139 a30.598890942698706,30.598890942698706 0 0,0 -0.4824123890252217,0.2114754145553736 l -3.778030141732036 -8.824125768481967" fill="#ff2803" stroke="none" /><path d="M 107.93186726928326 119.44442032107085 l 4.473946282907503 10.967567795244626 a32.84498791411916,32.84498791411916 0 0,0 -0.5253304380005833,0.209039822865074 l -4.284494768865054 -11.042954462515768" fill="#ff4b07" stroke="none" /><path d="M 105.18746579009965 120.34920634021253 l 5.834626672259962 22.887866036345397 a44.61984928195649,44.61984928195649 0 0,0 -0.7458881678897055,0.18332116429832573 l -5.439785219627045 -22.984908458957754" fill="#fff617" stroke="none" /><path d="M 104.83641907484287 120.43548508189849 l 2.6103754359873794 11.029707611102232 a32.33439499502346,32.33439499502346 0 0,0 -0.5427248913008599,0.12352241829953117 l -2.4201303952936573 -11.073006762979448" fill="#ff4306" stroke="none" /><line stroke="#e1ed5e" stroke-width="0.3" x1="102.19456741930631" x2="102.32365962044197" y1="184.97166512339345" y2="189.96999836594603" /><path d="M 102.22038585953345 185.97133177190398 a86.0,86.0 0 0,1 -42.740103519485714,-10.115201625700543" fill="none" id="id19" stroke="none" /><text fill="#e1ed5e" style="font-size:6.75px; font-family:Arial;" text-anchor="middle"><textPath startOffset="22.20632615414155" xlink:href="#id19">July</textPath></text><path d="M 100.18074693466247 120.99922214144158 l 0.0944468910684701 10.97286241572555 a31.973268875302146,31.973268875302146 0 0,0 -0.5503876514618435,0.0 l 0.09444689106846255 -10.97286241572555" fill="#ff3d05" stroke="none" /><path d="M 98.73552117531835 120.96189622390904 l -0.6543564263347176 10.847592885337306 a31.86731124697853,31.86731124697853 0 0,0 -0.5472637690242328,-0.03774251364415053 l 0.8409829561378805 -10.83472202717687" fill="#ff3c05" stroke="none" /><path d="M 97.2962882734958 120.8252237178851 l -3.804989183985115 29.30776614379571 a50.553732404379346,50.553732404379346 0 0,0 -0.8619926753714316,-0.11946433031132878 l 4.308910450543378 -29.237927247991774" fill="#baff1f" stroke="none" /><path d="M 93.42475214034765 119.94407469862007 l -4.115116021476722 12.481990500987642 a34.142840892933314,34.142840892933314 0 0,0 -0.5565775162456985,-0.18882131238656652 l 4.3293632706596465 -12.409306201702954" fill="#ff5f08" stroke="none" /><path d="M 93.08242187328487 119.8279376855182 l -6.739379987731556 19.317166208750013 a41.459035973268875,41.459035973268875 0 0,0 -0.6717951893739,-0.2408818535814944 l 7.070894737735182 -19.19829681412856" fill="#ffca12" stroke="none" /><path d="M 92.40401165467489 119.57807347666478 l -4.841337448036265 12.478173474465212 a34.384444760415185,34.384444760415185 0 0,0 -0.549952871763163,-0.21883759740832284 l 5.055411395841286 -12.392989032650823" fill="#ff6209" stroke="none" /><path d="M 91.07499286063937 119.00905698771935 l -4.732931412904792 10.080503190871328 a32.136300298592346,32.136300298592346 0 0,0 -0.4987053887929183,-0.23940889289717185 l 4.905749469697953 -9.997540021474594" fill="#ff4006" stroke="none" /><path d="M 90.7491055286396 118.85261126421891 l -5.014886385644535 10.219952660304974 a32.384046637281386,32.384046637281386 0 0,0 -0.4983227678217486,-0.24986938079678847 l 5.1900630611490435 -10.132115438598884" fill="#ff4406" stroke="none" /><line stroke="#e1ed5e" stroke-width="0.3" x1="58.666819895761336" x2="56.23545636021788" y1="174.27360380694188" y2="178.64263932499728" /><path d="M 58.180547188652646 175.14741091055294 a86.0,86.0 0 0,1 -31.652253787137756,-30.449443065178592" fill="none" id="id20" stroke="none" /><text fill="#e1ed5e" style="font-size:6.75px; font-family:Arial;" text-anchor="middle"><textPath startOffset="22.20632615414155" xlink:href="#id20">August</textPath></text><path d="M 87.65650970185807 116.9893568818739 l -6.6033699088412625 9.088758956712496 a32.234323901606714,32.234323901606714 0 0,0 -0.44608471400966737,-0.33000280704501506 l 6.758839593269494 -8.973746200927714" fill="#ff4106" stroke="none" /><path d="M 87.07902340077011 116.55440617244103 l -7.0826929922637625 9.074374192088888 a32.51124697852978,32.51124697852978 0 0,0 -0.4381935647470612,-0.348127469470215 l 7.237844049728182 -8.95111280861354" fill="#ff4606" stroke="none" /><path d="M 86.51685102203217 116.09983520530335 l -7.4426127867821394 8.887007001100107 a32.591866913123845,32.591866913123845 0 0,0 -0.4270070366955394,-0.3639046603917679 l 7.594485300054735 -8.75757795048539" fill="#ff4706" stroke="none" /><path d="M 84.9287848128048 114.62390073753433 l -8.385523596201848 8.136640820263505 a32.684259917531634,32.684259917531634 0 0,0 -0.3883099391643561,-0.4071414187711484 l 8.52434008674516 -7.991092284909857" fill="#ff4806" stroke="none" /><path d="M 83.50135304334701 112.99209946851258 l -8.896822732555528 7.005932437900609 a32.32415754301152,32.32415754301152 0 0,0 -0.3404706327468238,-0.44010418872843277 l 9.01610018252042 -6.851750255058923" fill="#ff4306" stroke="none" /><path d="M 82.44556493220864 111.52570212397912 l -6.0695820463517824 3.9851008826628043 a28.260912839471064,28.260912839471064 0 0,0 -0.26349282335684004,-0.40894671325799364 l 6.137279733085668 -3.880032569483362" fill="#ff0200" stroke="none" /><line stroke="#e1ed5e" stroke-width="0.3" x1="26.63291911575756" x2="22.317208475507996" y1="142.92168965132927" y2="145.44649492493687" /><path d="M 25.769776987707644 143.4266507060508 a86.0,86.0 0 0,1 -11.730757126820373,-40.83630448921669" fill="none" id="id21" stroke="none" /><text fill="#e1ed5e" style="font-size:6.75px; font-family:Arial;" text-anchor="middle"><textPath startOffset="21.46611528233685" xlink:href="#id21">September</textPath></text><path d="M 81.69416730710424 110.29060199501025 l -10.337175178151556 5.811030685992218 a32.85855253803498,32.85855253803498 0 0,0 -0.2729193673290461,-0.4954279264912346 l 10.435670954932121 -5.632232241103161" fill="#ff4b07" stroke="none" /><path d="M 81.35079622478065 109.6543875284942 l -10.517664536957716 5.444822768756298 a32.84345229631736,32.84345229631736 0 0,0 -0.25558669824168934,-0.5042968031472035 l 10.60982990498567 -5.262971753906409" fill="#ff4b07" stroke="none" /><path d="M 81.02952815118164 109.00673069616217 l -10.739774024350233 5.098990322741258 a32.88875302147021,32.88875302147021 0 0,0 -0.23840490620731478,-0.513502958474425 l 10.825953547397374 -4.913367296988006" fill="#ff4b07" stroke="none" /><path d="M 80.32549172779595 107.34259656027581 l -12.437489517733432 4.641715385608738 a34.275415896487985,34.275415896487985 0 0,0 -0.20153249081772442,-0.5545308599696831 l 12.515546269556378 -4.4269367286329375" fill="#ff6108" stroke="none" /><path d="M 80.20201598880116 107.00284435728193 l -12.540398809864154 4.435727445483703 a34.30177733541874,34.30177733541874 0 0,0 -0.19210492998042844,-0.5583468488475719 l 12.614894570787811 -4.219207893546835" fill="#ff6109" stroke="none" /><path d="M 79.86692584326677 105.97154293290107 l -18.141482047223146 5.380829478304821 a39.92265036257643,39.92265036257643 0 0,0 -0.1897416410098464,-0.6605155441200433 l 18.231416325119095 -5.067756458680182" fill="#ffb410" stroke="none" /><path d="M 79.67330655649465 105.27499134158121 l -19.565995915518627 5.077582309716548 a41.21410493388312,41.21410493388312 0 0,0 -0.17229200498338318,-0.6882209154508289 l 19.65049923479707 -4.740033554868327" fill="#ffc712" stroke="none" /><path d="M 79.29508885075956 103.50808413554451 l -12.769914082002742 2.1636380219377886 a33.951912412910566,33.951912412910566 0 0,0 -0.0926697169327214,-0.5770544158002181 l 12.805265553296755 -1.9435043764443571" fill="#ff5c08" stroke="none" /><path d="M 79.23777060512086 103.15116336523772 l -13.339935871324576 2.024653345883295 a34.49270581544149,34.49270581544149 0 0,0 -0.08404057266915894,-0.5877795695097003 l 13.372810495010333 -1.7947283043931943" fill="#ff6409" stroke="none" /><path d="M 79.07016306316243 101.71520430193888 l -22.78334190478915 1.8670994029035797 a43.859718470069666,43.859718470069666 0 0,0 -0.05518689038060254,-0.7529812730547292 l 22.812105353834088 -1.47464499335209" fill="#ffeb16" stroke="none" /><path d="M 79.0235259727143 100.99374915477108 l -34.78828339076984 1.6480761814662164 a55.827299872031844,55.827299872031844 0 0,0 -0.03721252985166061,-0.960290045311928 l 34.811498053472704 -1.0490088891402916" fill="#7aff26" stroke="none" /><line stroke="#e1ed5e" stroke-width="0.3" x1="15.007084014347285" x2="10.007500721073583" y1="101.09737516637583" y2="101.16192664675087" /><path d="M 14.007167355692545 101.11028546245083 a86.0,86.0 0 0,1 10.666146001902534,-42.60595125391555" fill="none" id="id22" stroke="none" /><text fill="#e1ed5e" style="font-size:6.75px; font-family:Arial;" text-anchor="middle"><textPath startOffset="22.20632615414155" xlink:href="#id22">October</textPath></text><path d="M 79.00175016825051 100.2711162175752 l -14.776786295647632 0.19078858669143273 a35.77801791554102,35.77801791554102 0 0,0 -0.0026504742594008054,-0.6158768745298654 l 14.777881067196535 0.06359776604210807" fill="#ff770b" stroke="none" /><path d="M 79.00486145842228 99.54816195383935 l -14.50925233119322 -0.31225477324645123 a35.51261197213138,35.51261197213138 0 0,0 0.018412960468127793,-0.6110365165925529 l 14.501727676269448 0.5619614372639985" fill="#ff730a" stroke="none" /><path d="M 79.03285615573316 98.82574320788736 l -16.831892074644184 -0.9426636140602602 a37.85826816436798,37.85826816436798 0 0,0 0.0420396399614048,-0.6503346230178342 l 16.81317184367837 1.2322573013311062" fill="#ff960d" stroke="none" /><path d="M 79.05617556472873 98.46500227214037 l -14.190971501330564 -1.0400731288588594 a35.229034551400545,35.229034551400545 0 0,0 0.04953121093670825,-0.6044062313845682 l 14.170965806574358 1.2841932774512061" fill="#ff6f0a" stroke="none" /><path d="M 79.12142395522702 97.74499172005258 l -19.36897072924062 -2.0919620799250627 a40.481615242428546,40.481615242428546 0 0,0 0.08078905736451023,-0.6921513064532233 l 19.33009131887252 2.425057124703148" fill="#ffbc11" stroke="none" /><path d="M 79.21141760316559 97.0276538004421 l -13.104521711662972 -1.8736811660912849 a34.23779326034409,34.23779326034409 0 0,0 0.08843802409605929,-0.5826960809991918 l 13.07032779412761 2.0989763594825686" fill="#ff6008" stroke="none" /><path d="M 79.32604984820605 96.31383870115002 l -12.293758515646603 -2.1919747568827166 a33.48764396416892,33.48764396416892 0 0,0 0.10606697124957083,-0.566614001647494 l 12.25420582048717 2.4032668359927833" fill="#ff5507" stroke="none" /><path d="M 79.46518482838121 95.60439243477599 l -15.923731205028401 -3.408575765909787 a37.28445897909853,37.28445897909853 0 0,0 0.13973791424987303,-0.6264176697307144 l 15.86269890377649 3.6821716051904607" fill="#ff8e0d" stroke="none" /><path d="M 79.54389044137918 95.25157060432595 l -11.295133143704685 -2.62191313034968 a32.59545002132803,32.59545002132803 0 0,0 0.13157262012126392,-0.5454534532477475 l 11.248327723322607 2.8159518152568244" fill="#ff4706" stroke="none" /><path d="M 80.2630227832202 92.82701384747504 l -18.811687390931706 -6.836709171760243 a41.01549836485141,41.01549836485141 0 0,0 0.2468652758874388,-0.6614762056850501 l 18.691217526542637 7.159508514474635" fill="#ffc412" stroke="none" /><path d="M 80.38941819471856 92.48833698450439 l -12.005351928594893 -4.598545773167643 a33.855936300298595,33.855936300298595 0 0,0 0.21314157874733664,-0.5424220694486243 l 11.924416799965865 4.804516847512031" fill="#ff5a08" stroke="none" /><path d="M 80.803312248108 91.48605970444005 l -11.733020545071811 -5.203722522260336 a33.835205459974404,33.835205459974404 0 0,0 0.24070958575186333,-0.5303716649395318 l 11.641708642356598 5.404916196041939" fill="#ff5a08" stroke="none" /><path d="M 81.26839172434947 90.50648371742162 l -16.41202555964484 -8.317910004722743 a39.3995165647661,39.3995165647661 0 0,0 0.3118013329102836,-0.602300930811699 l 16.26641479357444 8.599183657794777" fill="#ffad10" stroke="none" /><path d="M 81.43458229118936 90.18545643968196 l -22.72130179237946 -12.011537240156537 a46.70086733968434,46.70086733968434 0 0,0 0.38181717531887593,-0.7074492378867154 l 22.511176517842113 12.400867461375725" fill="#ecff1a" stroke="none" /><line stroke="#e1ed5e" stroke-width="0.3" x1="26.266209847984257" x2="21.92892807433627" y1="57.711370442889674" y2="55.22380399835377" /><path d="M 25.39875349325466 57.213857153982495 a86.0,86.0 0 0,1 29.58750427330802,-30.492523968695096" fill="none" id="id23" stroke="none" /><text fill="#e1ed5e" style="font-size:6.75px; font-family:Arial;" text-anchor="middle"><textPath startOffset="21.46611528233685" xlink:href="#id23">November</textPath></text><path d="M 81.78341655067847 89.55222093294921 l -15.572697847524047 -8.931428170463446 a38.952139911844164,38.952139911844164 0 0,0 0.33858744283740383,-0.5787556945412876 l 15.416650730216318 9.198163277358626" fill="#ffa60f" stroke="none" /><path d="M 82.15384107792192 88.93136811851018 l -11.061566295127632 -6.860658693450989 a34.016408360585814,34.016408360585814 0 0,0 0.31290625571872827,-0.49494255194718195 l 10.94183244316294 7.050048893112387" fill="#ff5d08" stroke="none" /><path d="M 82.34701348167596 88.62581576622439 l -45.90113554895616 -29.575050755938637 a75.60400966870468,75.60400966870468 0 0,0 0.7142899951763494,-1.0879126672733506 l 45.385248918421894 30.360781487189655" fill="#41ffd2" stroke="none" /><path d="M 82.7489923806493 88.02491185347247 l -16.87999409398318 -11.71754262989078 a41.54835774207308,41.54835774207308 0 0,0 0.41288656803068974,-0.5839987695330779 l 16.67579490614861 12.006367899755643" fill="#ffcb12" stroke="none" /><path d="M 82.95767976084542 87.72973835380427 l -44.302693807049636 -31.897396423455604 a75.59095691738946,75.59095691738946 0 0,0 0.7693625547198806,-1.0494096600108855 l 43.74706863981612 32.65526852713799" fill="#41ffd2" stroke="none" /><path d="M 83.17141714833178 87.43820079747576 l -44.61955294585496 -33.30653980508325 a76.67970993885967,76.67970993885967 0 0,0 0.7986522600126171,-1.050932757210989 l 44.039624745618234 34.06965733817526" fill="#43ffde" stroke="none" /><path d="M 84.07557802195018 86.31012108654704 l -9.742132518520846 -8.375099248261439 a33.84723446608844,33.84723446608844 0 0,0 0.3836151046817854,-0.4385383792273488 l 9.596525550261218 8.541553183691729" fill="#ff5a08" stroke="none" /><path d="M 84.5562425177563 85.77008943001954 l -41.16275366227726 -37.92744765008077 a76.97198919380065,76.97198919380065 0 0,0 0.9061900486497363,-0.9666603616255938 l 40.50379629165707 38.63037742858441" fill="#43ffe2" stroke="none" /><path d="M 84.80347519578584 85.50635884689758 l -42.83814252024047 -40.856753327026894 a80.19781032276411,80.19781032276411 0 0,0 0.9613645157618418,-0.9907706398192812 l 42.1285137407755 41.588088162396296" fill="#48f9ff" stroke="none" /><path d="M 85.83668400450813 84.49514656593479 l -12.800926459868966 -14.013419501738854 a39.97998009384331,39.97998009384331 0 0,0 0.5121035886369351,-0.4597716581927458 l 12.55781188363606 14.231690168700878" fill="#ffb510" stroke="none" /><path d="M 86.37877921826538 84.01681056812374 l -36.17842279139147 -42.45189136033382 a76.77670979667283,76.77670979667283 0 0,0 1.0132422122488338,-0.8485612134723292 l 35.442323042183524 43.06835373119996" fill="#43ffdf" stroke="none" /><path d="M 86.93701828274178 83.55741782278169 l -8.128814570106085 -10.231867766893906 a34.067851556945826,34.067851556945826 0 0,0 0.46229660044718257,-0.36082982947619346 l 7.951485414499477 10.37027598559332" fill="#ff5e08" stroke="none" /><path d="M 87.51073957382395 83.11751280151077 l -33.257745478390774 -44.95650207699747 a76.92105787004122,76.92105787004122 0 0,0 1.0712344592911989,-0.778297392139892 l 32.478965702745796 45.52231870395402" fill="#43ffe1" stroke="none" /><path d="M 88.70189139769569 82.29822771554957 l -9.018750590892664 -14.130495189050809 a37.7633157969572,37.7633157969572 0 0,0 0.5509503191955448,-0.34500503933597226 l 8.774181119324876 14.283644569709711" fill="#ff950d" stroke="none" /><line stroke="#e1ed5e" stroke-width="0.3" x1="56.762969772571076" x2="54.21961505331055" y1="26.818313649435495" y2="22.513508569990535" /><path d="M 56.25429882871897 25.957352633546506 a86.0,86.0 0 0,1 42.265352541879196,-11.944610805530505" fill="none" id="id24" stroke="none" /><text fill="#e1ed5e" style="font-size:6.75px; font-family:Arial;" text-anchor="middle"><textPath startOffset="22.20632615414155" xlink:href="#id24">December</textPath></text><path d="M 89.94658935756843 81.56283822128135 l -8.435013900066012 -15.469149864910248 a38.61942272145599,38.61942272145599 0 0,0 0.5863806778549313,-0.3132242504612175 l 8.167488175682777 15.612052841873219" fill="#ffa10e" stroke="none" /><path d="M 90.26544431104013 81.39251694778311 l -7.978970262297827 -15.251703177190725 a38.21273994028152,38.21273994028152 0 0,0 0.5854546817277881,-0.29989262716417947 l 7.715255092981275 15.38678832966741" fill="#ff9b0e" stroke="none" /><path d="M 90.91171255644093 81.06846463323043 l -7.134797615447875 -14.862280075364643 a37.486136783733826,37.486136783733826 0 0,0 0.5841086061829012,-0.2742468226441903 l 6.877910797965365 14.982891880648841" fill="#ff910d" stroke="none" /><path d="M 91.90106846888425 80.62456947434976 l -7.267471277524213 -17.386291548933503 a39.844077918384755,39.844077918384755 0 0,0 0.6350693133648001,-0.2590607185623221 l 6.967118094571032 17.5088131536794" fill="#ffb310" stroke="none" /><path d="M 92.57280143429618 80.3572730644239 l -9.07629583209508 -24.004097781847413 a46.66273283093986,46.66273283093986 0 0,0 0.75375350971464,-0.277613778815441 l 8.661759996607874 24.156774828469178" fill="#edff1a" stroke="none" /><path d="M 93.25333710446033 80.11325718540243 l -4.766476017853048 -14.049862008320854 a35.8363713920091,35.8363713920091 0 0,0 0.5858686613036869,-0.19315168637735847 l 4.523924534306952 14.129827418957445" fill="#ff780b" stroke="none" /><path d="M 93.94186890950719 79.89281104454417 l -4.306981605486063 -14.295051010878018 a35.92978814161808,35.92978814161808 0 0,0 0.5937137123936423,-0.1733213133496681 l 4.060277675368999 14.367070653146383" fill="#ff7a0b" stroke="none" /><path d="M 94.63758080256005 79.69619591428918 l -7.212356333908447 -27.308247380197944 a49.24461822835205,49.24461822835205 0 0,0 0.8214262878805894,-0.2093998506000011 l 6.741221157342859 27.428350226966806" fill="#cbff1d" stroke="none" /><path d="M 95.692805502759 79.44645832069477 l -2.7795407198177307 -13.263716340345042 a34.55182710081046,34.55182710081046 0 0,0 0.5831584828005216,-0.1169761055796116 l 2.5508158275500725 13.309596402001864" fill="#ff6509" stroke="none" /></svg>